<svg width="20" height="30" viewBox="0 0 20 30" fill="none" xmlns="http://www.w3.org/2000/svg">
<path d="M12.8249 29.2371C12.8249 29.6585 12.4834 30 12.062 30H7.93828C7.51692 30 7.17541 29.6585 7.17541 29.2371C7.17541 28.8158 7.51692 28.4743 7.93828 28.4743H12.062C12.4834 28.4743 12.8249 28.8158 12.8249 29.2371ZM19.5544 21.9502V24.1479C19.5544 25.7804 18.2261 27.1085 16.5935 27.1085H3.40691C1.77445 27.1085 0.446289 25.7805 0.446289 24.1479V21.9502C0.446289 21.5288 0.787801 21.1873 1.20916 21.1873H1.41208C1.4103 21.1654 1.40929 21.1432 1.40929 21.1209V19.0765C1.40819 19.0312 1.41124 18.9862 1.41819 18.9419C1.43548 18.8293 1.47744 18.7248 1.53838 18.6341C1.59814 18.5447 1.67731 18.4672 1.77292 18.4088C1.81166 18.3849 1.8526 18.3645 1.89549 18.3478C2.19759 18.2221 2.4979 18.0922 2.79441 17.9591V8.63816C2.79441 7.12284 3.75859 5.79172 5.13379 5.27958C5.13218 5.23787 5.13142 5.19617 5.13142 5.15413V3.27001C5.13134 1.46692 6.59825 0 8.40126 0H11.599C13.402 0 14.8689 1.46692 14.8689 3.27001V5.15421C14.8689 5.19617 14.868 5.23796 14.8665 5.27949C15.4086 5.48106 15.8946 5.81181 16.2822 6.24164C16.2958 6.21621 16.3092 6.19087 16.3227 6.16544C16.5192 5.79282 16.9806 5.64999 17.3535 5.84673C17.7261 6.0433 17.8687 6.50483 17.6722 6.87745C16.2443 9.58361 14.1709 12.0911 11.5093 14.3301C9.38485 16.1172 6.97342 17.6608 4.32023 18.9339V21.1874H15.6802V12.0059C15.6802 11.5845 16.0217 11.243 16.4431 11.243C16.8645 11.243 17.206 11.5845 17.206 12.0059V21.1873H18.7916C19.2128 21.1873 19.5544 21.5288 19.5544 21.9502ZM6.65708 5.15421C6.65708 5.31035 6.67768 5.46182 6.71633 5.606C6.72252 5.62465 6.72803 5.64364 6.73269 5.66296C6.95087 6.37735 7.61626 6.89848 8.40117 6.89848H11.5989C12.3837 6.89848 13.0491 6.37752 13.2674 5.66322C13.2723 5.64364 13.2778 5.6244 13.284 5.60558C13.3225 5.46157 13.3431 5.31026 13.3431 5.15421V3.27001C13.3431 2.30819 12.5607 1.52574 11.5989 1.52574H8.40117C7.43945 1.52574 6.65708 2.30819 6.65708 3.27001V5.15421ZM4.32015 17.23C9.0825 14.8125 12.9944 11.4534 15.4379 7.67389C15.2165 7.26101 14.8657 6.94001 14.449 6.7559C13.8877 7.75086 12.8205 8.42413 11.5989 8.42413H8.40117C7.17965 8.42413 6.11239 7.75077 5.55108 6.75582C4.82178 7.07792 4.32015 7.81011 4.32015 8.63816V17.23ZM18.0286 22.7131H16.4546C16.4507 22.7131 16.4468 22.7131 16.443 22.7131H3.55728C3.55346 22.7131 3.54965 22.7131 3.54575 22.7131H1.97203V24.1479C1.97203 24.9391 2.61573 25.5828 3.40691 25.5828H16.5935C17.3848 25.5828 18.0286 24.9391 18.0286 24.1479V22.7131Z" fill="white"/>
</svg>
